<svg xmlns="http://www.w3.org/2000/svg" viewBox="0 0 617.19 551.19"><defs><style>.cls-1{isolation:isolate;}.cls-2{fill:#49baac;}.cls-3{fill:#338a84;}.cls-4{fill:#f67280;}.cls-5{fill:#ffdec2;}.cls-10,.cls-6{fill:#ffc192;}.cls-7{fill:#e2c59f;}.cls-8{fill:#f9f9f9;}.cls-9{fill:#1a2d3d;}.cls-10{mix-blend-mode:multiply;opacity:0.57;}.cls-11{fill:#c97c1f;}.cls-12{fill:#995802;}.cls-13{fill:#c6c6c6;}.cls-14{fill:#e5e5e5;}.cls-15{fill:#56d6c4;}.cls-16{fill:#7d513b;}.cls-17{fill:#296d67;}.cls-18{fill:#5e3c2d;}.cls-19{fill:#48466d;}.cls-20{fill:none;stroke:#878787;stroke-miterlimit:10;stroke-width:0.5px;}</style></defs><g class="cls-1"><g id="Warstwa_1" data-name="Warstwa 1"><path class="cls-2" d="M233.39,517.58c-9.67-.77-205.39-24.8-215.64-108.07s33.45-133.07,230-78.76,258-41.5,330.72,7.33S521.49,540.64,233.39,517.58Z"/><path class="cls-3" d="M396.94,442.37c-135.34-9.4-284,15.89-333,25.26,61.43,37.07,162.54,49.4,169.42,50C390.27,530.14,500.16,490.27,556,443.47,525.88,446.44,476.27,447.87,396.94,442.37Z"/><path class="cls-4" d="M342.44,293.19s13.79-9.56,20.81-7c19.69,7.18,27.19-15.18,27.19-15.18v32.36s-21,5.08-27.19-2.25C351.61,287.37,342.44,293.19,342.44,293.19Z"/><polygon class="cls-5" points="234.15 46.5 260.13 106.4 289.47 94.74 240.94 38.36 234.15 46.5"/><polygon class="cls-6" points="234.15 46.5 260.13 106.4 289.47 94.74 240.94 38.36 234.15 46.5"/><path class="cls-7" d="M230.73,236.37s-6,99.42,7.54,171.73,12,91.89,12,91.89h26.36l2.26-208.79,58,208.79h29.37L315.85,243.15Z"/><path class="cls-8" d="M226.75,245s70.72,27.93,90.81,7.18c0,0,10.45-55.37,18.48-74.76s32.95-50.81,0-68.61L303.09,91l-59.47,6.64H222.73L209.06,117s12.06,6.35,37.78,16.51c0,0-2.41,50.06-3.22,60.43S226.75,245,226.75,245Z"/><path class="cls-8" d="M325.64,522.59s-13.36-5.75,28-33.76Z"/><path class="cls-9" d="M325.64,522.59h33.89a50,50,0,0,0,4.82-32.6C360.73,471.59,327.14,518.07,325.64,522.59Z"/><polygon class="cls-9" points="250.32 499.99 250.32 519.58 276.68 519.58 272.91 499.99 250.32 499.99"/><path class="cls-5" d="M334,84.5l-4.47,25s-16.32-1.3-25.3-16l6.27-17.52Z"/><path class="cls-5" d="M339.84,77.27s3.41,3.94,6.25-5.33,4.57-11.52-.32-9.68S339.84,77.27,339.84,77.27Z"/><path class="cls-5" d="M300.9,67.57s-4.71,2.23-3.56-7.4.49-12.38,4.21-8.72S300.9,67.57,300.9,67.57Z"/><path class="cls-10" d="M339.84,77.27s3.41,3.94,6.25-5.33,4.57-11.52-.32-9.68S339.84,77.27,339.84,77.27Z"/><path class="cls-10" d="M300.9,67.57s-4.71,2.23-3.56-7.4.49-12.38,4.21-8.72S300.9,67.57,300.9,67.57Z"/><path class="cls-11" d="M342.93,42.44S338,20.75,308.76,32c0,0,11.53,3.65,12.64,10.47S342.93,42.44,342.93,42.44Z"/><path class="cls-5" d="M318.73,96.34s8.79,3,17.63-10.4a53.93,53.93,0,0,0,8.81-27.85c.24-1.89,1.06-8.86.91-9.71s-2.22-10.33-14.2-8.84c0,0-10.28-3.6-13.4-3.45S306.66,44.8,303,56.32c-3.76,11.87,1.48,35.23,9.92,38.33Z"/><path class="cls-12" d="M305.05,84.2s-6.18-31.35-3.29-34.31S312.81,28,330.19,28.75s15.89,5.83,15.89,5.83,4.15,17.61,3.86,21.29-12.41,31.64-17.18,34.68C313.15,103.07,305.05,84.2,305.05,84.2Z"/><rect class="cls-13" x="338.71" y="10.41" width="4" height="206.37" transform="translate(43.91 315.83) rotate(-52.71)"/><path class="cls-9" d="M271.43,64.83A4,4,0,0,1,269,64L221.56,28.56a4,4,0,1,1,4.79-6.41l47.48,35.48a4,4,0,0,1-2.4,7.2Z"/><path class="cls-13" d="M412.43,185.41s-14,30.62-2.68,30.62,28.84-22.59,17.54-39.92l-8.48-5.56Z"/><path class="cls-14" d="M249.56,131.12c2.7.42,5.35.89,8,1.36s5.28.93,7.92,1.29c1.32.21,2.64.37,4,.52l2,.23,2,.15a53.78,53.78,0,0,0,8,0,23.78,23.78,0,0,1-8.06,1.54,45,45,0,0,1-8.2-.49,58.51,58.51,0,0,1-8-1.75A46.69,46.69,0,0,1,249.56,131.12Z"/><path class="cls-15" d="M147.08,159.42c10.73-31.79-1-52.67-15-65.47a42.32,42.32,0,0,0-57.21,0c-14,12.8-25.74,33.68-15,65.47C80.8,221.41,4.06,241.76,32,317.3c.42,1.13.84,2.24,1.28,3.33,25.2,63.4,115.27,63.4,140.47,0,.43-1.09.86-2.2,1.27-3.33C202.89,241.76,126.15,221.41,147.08,159.42Z"/><rect class="cls-16" x="101.97" y="132.36" width="3" height="290.63"/><rect class="cls-16" x="83.46" y="259.8" width="3" height="54.78" transform="translate(-171.8 133.01) rotate(-42.54)"/><rect class="cls-16" x="96.18" y="244.7" width="52.55" height="3" transform="translate(-136.23 152.96) rotate(-43.73)"/><rect class="cls-16" x="87.96" y="153.55" width="3" height="45.63" transform="translate(-89.48 92.17) rotate(-37.91)"/><path class="cls-17" d="M540.55,182.06c7.84-23.24-.74-38.5-11-47.85a30.92,30.92,0,0,0-41.81,0c-10.22,9.35-18.81,24.61-11,47.85,15.3,45.3-40.79,60.18-20.4,115.39.31.83.62,1.64.94,2.44,18.41,46.33,84.24,46.33,102.66,0,.32-.8.63-1.61.93-2.44C581.34,242.24,525.25,227.36,540.55,182.06Z"/><rect class="cls-18" x="507.18" y="162.28" width="3" height="212.42"/><rect class="cls-18" x="493.64" y="255.42" width="3" height="40.03" transform="translate(-55.91 407.25) rotate(-42.54)"/><rect class="cls-18" x="503.35" y="243.99" width="38.41" height="3" transform="translate(-24.71 429.42) rotate(-43.74)"/><ellipse class="cls-19" cx="390.19" cy="367.13" rx="6.75" ry="2.56"/><rect class="cls-18" x="496.93" y="177.77" width="3" height="33.35" transform="translate(-14.3 347.26) rotate(-37.91)"/><rect class="cls-13" x="388.94" y="271.33" width="3" height="98.23"/><path class="cls-9" d="M301.76,49.89l47.09,11.78s15-28.57-14.81-36.31-32.63,23.51-32.63,23.51"/><path class="cls-12" d="M320.19,49.49s1.75-7.6,9-5.85S334,52.37,334,52.37Z"/><path class="cls-5" d="M234.5,55.72c15.06-10.67,23.35-7.59,24.1-13.27s-16.76-8.91-16.76-8.91-11.11-1.92-20.9,21.37c0,0-17.39,25.1-22.13,46.74a13.05,13.05,0,0,0,8.64,15.18l37.4,12.39L258.18,96l-11.63,1.31H227S219.44,66.39,234.5,55.72Z"/><path class="cls-8" d="M239.64,96l-10.79,34s14.18,5.48,20.44,4.25l10.15-40.83Z"/><path class="cls-14" d="M297.16,93.46a39.18,39.18,0,0,0,6.59,10.91,32.72,32.72,0,0,0,4.53,4.36,27.54,27.54,0,0,0,5.28,3.35,34.48,34.48,0,0,0,12.05,3.41,62.59,62.59,0,0,0,12.83-.12,40,40,0,0,1-12.94,1.68,31,31,0,0,1-12.84-3.18,28.61,28.61,0,0,1-10.12-8.53,29.55,29.55,0,0,1-3.37-5.67A25.9,25.9,0,0,1,297.16,93.46Z"/><polygon class="cls-8" points="274.69 94.1 259.44 93.46 258.83 95.89 274.69 94.1"/><polygon class="cls-8" points="249.29 134.29 260.86 131.12 250.82 128.13 249.29 134.29"/><line class="cls-20" x1="409.76" y1="205.25" x2="417.88" y2="183.68"/><line class="cls-20" x1="413.45" y1="206.64" x2="421.58" y2="185.07"/><line class="cls-20" x1="417.35" y1="208.11" x2="425.47" y2="186.54"/></g></g></svg>