<svg xmlns="http://www.w3.org/2000/svg" xmlns:xlink="http://www.w3.org/1999/xlink" viewBox="0 0 603.57 501.33"><defs><style>.cls-1{fill:none;}.cls-2{isolation:isolate;}.cls-3{fill:#f9f9f9;}.cls-4{fill:#355c7d;}.cls-5{fill:#fffc83;}.cls-6{fill:#1a2d3d;}.cls-7{fill:#f7f9fa;}.cls-8{fill:#338a84;}.cls-9{fill:#49baac;}.cls-10,.cls-22{fill:#32315b;}.cls-11{fill:#7d513b;}.cls-12{fill:#3a648a;}.cls-13,.cls-24{fill:#fff;}.cls-14{fill:#ffdec2;}.cls-15{fill:#995802;}.cls-16,.cls-21{fill:#ffc192;}.cls-17,.cls-20{fill:#c97c1f;}.cls-18{fill:#48466d;}.cls-19{fill:#1f3647;}.cls-20{opacity:0.18;}.cls-21{mix-blend-mode:multiply;opacity:0.57;}.cls-22,.cls-24{stroke:#878787;stroke-miterlimit:10;}.cls-23{fill:#4c3125;}.cls-24{stroke-width:0.25px;}.cls-25{fill:#ccc;}.cls-26{fill:#eaeaea;}.cls-27{fill:#f67280;}.cls-28{clip-path:url(#clip-path);}</style><clipPath id="clip-path"><path class="cls-1" d="M185.88,182.79a9.46,9.46,0,0,0,8.35-6.68c1.07-3.51,2.59-8.76,4.66-16.43,4.81-17.8.63-25.58.21-27.74s-8.66-21.4-21.2-15.45c0,0-12.52-.21-15.86,1.08s-9.76,13.77-9.59,27.66c.18,14.3,14.34,37.9,24.66,38.24Z"/></clipPath></defs><g class="cls-2"><g id="Warstwa_1" data-name="Warstwa 1"><path class="cls-3" d="M433.05,34.67c-31.44,5-61.15,17.63-87.24,35.87C319.52,88.92,267.39,117.83,199.45,118,99.82,118.11-72.47,213.4,33,371.45s446.55,106.64,520.39-62.21C618,161.49,577.63,11.54,433.05,34.67Z"/><path class="cls-4" d="M380.74,70.36,534.6,156.54a3.32,3.32,0,1,1-3.23,5.8L380.74,78.6Z"/><circle class="cls-5" cx="340.07" cy="100.29" r="14.13"/><path class="cls-4" d="M335.6,63.05a17.86,17.86,0,0,1,.93-3.53,18.25,18.25,0,0,1,34.23,12.69A17.73,17.73,0,0,1,369.45,75c14.26,11.12,21,28,15.51,42.83a29.65,29.65,0,0,1-2.37,5l-86.22-32a31.26,31.26,0,0,1,1.43-5.3C303.1,71.17,318.31,62.83,335.6,63.05Z"/><path class="cls-4" d="M419,435.83a3.33,3.33,0,0,0,3.66-1.93l115.5-263a3.32,3.32,0,1,0-6.07-2.67l-115.51,263a3.31,3.31,0,0,0,1.7,4.37A4,4,0,0,0,419,435.83Z"/><path class="cls-6" d="M382.1,441.65A11.93,11.93,0,0,1,394,430h60a12,12,0,0,1,11.9,11.7Z"/><path class="cls-6" d="M370.69,75.74a7,7,0,0,1,11.43-5.94,7,7,0,0,1-3.87,12.28c-.21,0-.41,0-.62,0A7,7,0,0,1,370.69,75.74Zm6.73-3.14a2.54,2.54,0,1,0,2.75,2.31,2.56,2.56,0,0,0-2.53-2.32Z"/><path class="cls-6" d="M531.48,163a7,7,0,1,1,7,7A7,7,0,0,1,531.48,163Zm4.43,0a2.55,2.55,0,1,0,2.54-2.54A2.54,2.54,0,0,0,535.91,163Z"/><path class="cls-6" d="M362.88,39.28a3.89,3.89,0,0,1,3.91,5.45L364.48,50l-7.11-3.14,2.3-5.23a3.91,3.91,0,0,1,3.21-2.31m-.41-4.4a8.3,8.3,0,0,0-6.85,4.93l-4.09,9.27,15.22,6.71,4.09-9.28a8.31,8.31,0,0,0-8.37-11.63Z"/><path class="cls-4" d="M90.54,474.78H49.6a4.79,4.79,0,0,1-4.78-4.39l-4.27-50.22A4.8,4.8,0,0,1,45.33,415H94a4.81,4.81,0,0,1,4.79,5.13l-3.42,50.22A4.79,4.79,0,0,1,90.54,474.78Z"/><rect class="cls-7" x="44.93" y="416.31" width="49.87" height="5.92" rx="2.96"/><path class="cls-8" d="M68.84,419.37s10.7-63-41.62-150.12C27.22,269.25,29.22,380.25,68.84,419.37Z"/><path class="cls-9" d="M69.52,420.53S91.75,364.06,57.9,259.88C57.9,259.88,38.79,367.5,69.52,420.53Z"/><path class="cls-8" d="M70.77,420.54s29.8-48.81,11.48-160.68C82.25,259.86,48.23,359.66,70.77,420.54Z"/><path class="cls-9" d="M70,420.52s37.93-35.42,41.49-150.2C111.44,270.32,59.79,353.18,70,420.52Z"/><path class="cls-8" d="M70.09,415.78s29-.45,53.91-89.48C124,326.3,75.05,358.72,70.09,415.78Z"/><path class="cls-9" d="M68,419.14s28.5,8.23,66.24-42C134.25,377.13,84.54,381.78,68,419.14Z"/><path class="cls-9" d="M69.67,416.84s-36.7-13-61.61-102C8.06,314.85,64.71,359.77,69.67,416.84Z"/><path class="cls-8" d="M69.67,420.2s-28.5,8.22-66.24-42C3.43,378.18,53.14,382.83,69.67,420.2Z"/><path class="cls-10" d="M219.78,296.9l-84.2,9.3s4.35,85.7,96.52,63.42c67-16.18,74-46.7,74-46.7l76.5,125.69,20.07-6.45L361.11,293c-5.35-25.05-32.51-28.81-39.58-25.13l-89.72,34.56Z"/><polygon class="cls-11" points="126.14 408.46 118.33 475.09 129.8 475.09 160.63 414.52 126.14 408.46"/><polygon class="cls-11" points="288.99 401.47 313.71 475.09 324.44 475.09 320.93 396.84 288.99 401.47"/><path class="cls-10" d="M355.33,458l3.6,14.73,6-.29,2.28.4,4.89.4s47,3.4,53.54-3.39-58-20.69-58-20.69Z"/><path class="cls-10" d="M382.1,446.9l3.59,14.74,6.11-1.49,1.1-4.73,5.94,6.73s47,3.4,53.54-3.4-58-20.68-58-20.68Z"/><path class="cls-12" d="M233.63,246.27c-3.73-13.84-2-44.33-23.45-53.44-12.44-5.27-23-9-23-9l-29.45,1.11S122.64,195.83,114,209c-5.13,7.83,4.18,37.94,4.18,37.94,11.64,34.7,10.93,60.75,10.93,60.75l82.25-1.18,1-9.47c1.72,6.65,0-22.69,5.94-41.55C222.82,241.16,233.63,246.27,233.63,246.27Z"/><path class="cls-13" d="M217,315.6l1-25.39-88.9,16.45L157,371.08S182.81,341.07,217,315.6Z"/><path class="cls-14" d="M189.69,169l.91,22.35-8.67,18.26S166.8,202,157,189.52l4.21-23.64Z"/><path class="cls-15" d="M150.33,150.9s-7.46-18.41-5.36-22.65,1.06-21.78,20.29-27.2,24.39,9.47,24.39,9.47,7.6.61,8.61,4.68,4.8,26.57-1.42,28.45S150.33,150.9,150.33,150.9Z"/><path class="cls-16" d="M158.09,183.64s29.32,5.34,32.1-2.45L160.59,169Z"/><path class="cls-17" d="M194.27,129.05s3.3-27.15-31-22c0,0,14.34,6.36,13.1,14.44S194.27,129.05,194.27,129.05Z"/><path class="cls-14" d="M185.88,183.79a9.46,9.46,0,0,0,8.35-6.68c1.07-3.51,2.59-8.76,4.66-16.43,4.81-17.8.11-25.54.21-27.74.35-8-7.31-18.76-19.85-12.81,0,0-8.94-3.66-12.28-2.36s-14.69,14.57-14.52,28.46c.18,14.3,14.34,37.9,24.66,38.24Z"/><path class="cls-14" d="M239,286.73s36.25-35.37,50.45-44.39,24.05-10.62,1.69,7.57c0,0,16.33-12.93,18.33-12s2.26,20.93-15.76,23.6-44.27,66.57-57.32,57.26S239,286.73,239,286.73Z"/><path class="cls-18" d="M213.14,315.6l-76.78,7.87s1.06,95.89,92.19,67.93c66.22-20.32,84.6-31.09,84.6-31.09l43,97.67,16.48-4.61L345.86,305.16c-4.41-20.07-29.21-19.17-36.12-15l-84.35,30.6Z"/><path class="cls-19" d="M220.36,220.92q-.26,9.59-.89,19.15c-.39,6.37-.9,12.74-1.43,19.11s-1.17,12.72-1.88,19.07-1.61,12.69-2.55,19c.16-6.4-.47-13,.47-19.27.39-6.38,1.43-12.63,2-19s1.17-12.72,1.88-19.07S219.42,227.25,220.36,220.92Z"/><path class="cls-20" d="M155,158.46c4.58,12.6,14.39,25.75,22.08,26l8.77-.68a9.46,9.46,0,0,0,8.35-6.68c1-3.27,2.39-8.08,4.25-14.92-13.68-9.51-28.48,3.15-28.48,3.15l-13.36-16.78Z"/><path class="cls-14" d="M159.47,157.43s-4.17,5.69-9.07-4.33-7.5-12.11-.66-11.47S159.47,157.43,159.47,157.43Z"/><path class="cls-21" d="M159.47,157.43s-4.17,5.69-9.07-4.33-7.5-12.11-.66-11.47S159.47,157.43,159.47,157.43Z"/><path class="cls-12" d="M139.45,193.75s-41.93,13.52-36.66,54.85c3.95,31,.28,100.25,41.39,123.44,26,14.71,69.73-17.46,87-41.87h0Z"/><line class="cls-22" x1="220.24" y1="321.09" x2="219.04" y2="320.6"/><path class="cls-19" d="M145.12,224.27c2.58,5.68,4.88,11.48,7,17.36s4,11.83,5.71,17.82,3.17,12.08,4.39,18.2a150.67,150.67,0,0,1,2.48,18.56c-1.19-6.13-2.56-12.18-4-18.22s-3.09-12-4.79-18-3.47-11.93-5.27-17.88Z"/><polygon class="cls-23" points="288.99 401.47 320.99 398.22 321.96 419.8 296.22 423.02 288.99 401.47"/><polygon class="cls-23" points="126.14 408.46 160.63 414.52 148.24 438.88 123.5 430.91 126.14 408.46"/><rect class="cls-11" x="105.11" y="187.81" width="21.1" height="231.19" rx="10.55" transform="translate(-57.85 28.94) rotate(-11.43)"/><rect class="cls-11" x="217.71" y="294.73" width="21.1" height="204.22" rx="10.55" transform="translate(-143.46 664.06) rotate(-95.81)"/><path class="cls-24" d="M312.69,188.88l-29.35,41.94s15.87,8.22,15.3,24.63l45.57-55S328.48,181.17,312.69,188.88Z"/><rect class="cls-13" x="283.43" y="224.73" width="78.11" height="5.9" transform="translate(-62.05 316.95) rotate(-48.29)"/><rect class="cls-25" x="284.75" y="225.91" width="78.11" height="5.9" transform="translate(-62.49 318.32) rotate(-48.29)"/><rect class="cls-13" x="285.55" y="227.14" width="78.11" height="2.95" transform="translate(-62.04 318.84) rotate(-48.29)"/><rect class="cls-26" x="288.38" y="229.76" width="78.11" height="2.19" transform="translate(-62.76 321.71) rotate(-48.29)"/><rect class="cls-27" x="285.89" y="231.07" width="83.75" height="5.04" rx="2.52" transform="translate(-64.69 322.86) rotate(-48.29)"/><path class="cls-26" d="M337.17,203.26c-13.38-15.51-24.36-10.36-24.47-10.3l-.45-.9c.48-.23,11.76-5.59,25.68,10.55Z"/><path class="cls-26" d="M333.88,206.4c-12.06-13.18-23.06-9.92-23.17-9.89l-.3-.95c.47-.15,11.72-3.48,24.2,10.17Z"/><path class="cls-26" d="M330.09,210c-8.93-11.5-20.87-10.84-21-10.83l-.06-1c.13,0,12.59-.69,21.84,11.22Z"/><path class="cls-26" d="M325.22,214.26c-7.35-11-18-11.6-18.12-11.6l0-1c.11,0,11.27.57,18.91,12Z"/><path class="cls-26" d="M320.81,217.39c-3.76-8.26-16.09-11.38-16.22-11.41l.24-1c.53.13,12.93,3.27,16.89,12Z"/><path class="cls-26" d="M317.38,221.18c-3.12-6.28-15.67-11.23-15.8-11.27l.36-.94c.54.21,13,5.14,16.34,11.76Z"/><path class="cls-26" d="M314.45,226c-3.12-6.28-15.67-11.22-15.8-11.27l.36-.93c.53.21,13,5.13,16.34,11.76Z"/><path class="cls-26" d="M311.11,230.82c-3.13-6.28-15.68-11.22-15.8-11.27l.36-.93c.53.2,13,5.13,16.33,11.75Z"/><path class="cls-26" d="M305.77,235.46a21.49,21.49,0,0,0-13.72-11.11l.19-1A22.11,22.11,0,0,1,306.66,235Z"/><path class="cls-26" d="M302.33,241.17c-3.4-9.89-13.52-12-13.63-12l.2-1c.11,0,10.79,2.27,14.38,12.7Z"/><path class="cls-14" d="M233.63,246.27l14.87,44.35v24L239.58,318a11.15,11.15,0,0,1-13.86-5.38l-11.09-21.74,4.09-40S228.34,238.57,233.63,246.27Z"/><path class="cls-11" d="M290.46,380.55c0-.21-3.46-21.57-8-51.69-1.32-8.75-6.17-13.88-15.28-16.16a44.81,44.81,0,0,0-15.17-.87l-.52.08-.53,0-124.58,4.69-2.7-18.74,126.12-4.67a63,63,0,0,1,21.93,1.3c16.43,4.1,26.83,15.31,29.28,31.56,4.52,30,7.94,51.81,8,52Z"/><path class="cls-14" d="M155.5,258.69l-34.17,20.69A201.75,201.75,0,0,0,142,303.57c7.31,7.36,22,8.7,40.22,8.19,57.37-1.6,92-15.13,102.36-10.13s9-2.51,0-11.42-27,2.57-27,2.57l-90.12-5Z"/><path class="cls-15" d="M179.36,138.48a26.9,26.9,0,0,0-2.91.14,24.1,24.1,0,0,0-2.72.44c-.88.22-1.77.44-2.66.75-.46.12-.89.33-1.37.46a14.29,14.29,0,0,1-1.44.48,7.58,7.58,0,0,1,2.2-2.17,8.83,8.83,0,0,1,2.89-1.23,8.35,8.35,0,0,1,3.15-.1A5.75,5.75,0,0,1,179.36,138.48Z"/><polygon class="cls-12" points="219.25 244.75 231.8 236.13 235.83 252.83 217.74 259.28 219.25 244.75"/><polygon class="cls-12" points="153.66 252.83 159.31 267.94 124.07 292.79 119.51 269.25 153.66 252.83"/><g class="cls-28"><path class="cls-15" d="M190.79,137.75a5.78,5.78,0,0,1,2.7-1.55,8.16,8.16,0,0,1,3.15-.26,8.68,8.68,0,0,1,3,.89,8.1,8.1,0,0,1,1.32.82,8.78,8.78,0,0,1,1.12,1.08c-.53-.06-1-.2-1.49-.3s-.94-.24-1.41-.3a26.76,26.76,0,0,0-2.73-.45,22.82,22.82,0,0,0-2.75-.13C192.77,137.57,191.82,137.63,190.79,137.75Z"/></g><path class="cls-14" d="M181.93,166.29a55.41,55.41,0,0,1,5.79.31l2.86.24c1,.1,1.92.1,2.91.28a7.51,7.51,0,0,1-5.81,1.94,9.26,9.26,0,0,1-2.92-.78A9.12,9.12,0,0,1,181.93,166.29Z"/><path class="cls-16" d="M290.33,297.27a28.29,28.29,0,0,0-15.42-3"/><path class="cls-16" d="M287,292.78s-7.76-4.32-14.76-2.57"/><path class="cls-14" d="M288.8,246.38s19.64-14.45,22.76-10.4L293,253.63Z"/><circle class="cls-18" cx="195.35" cy="143.04" r="1.42"/><circle class="cls-18" cx="176.75" cy="143.61" r="1.42"/></g></g></svg>